<mxfile host="Electron" modified="2024-11-01T08:54:22.329Z" agent="Mozilla/5.0 (Windows NT 10.0; Win64; x64) AppleWebKit/537.36 (KHTML, like Gecko) draw.io/22.1.16 Chrome/120.0.6099.109 Electron/28.1.0 Safari/537.36" etag="1QNeE7VYtiWWjVbOJuIb" version="22.1.16" type="device">
  <diagram name="Page-1" id="4cLpT11_sbqyCf1jBhfF">
    <mxGraphModel dx="830" dy="478" grid="0" gridSize="10" guides="1" tooltips="1" connect="1" arrows="1" fold="1" page="0" pageScale="1" pageWidth="827" pageHeight="1169" math="0" shadow="0">
      <root>
        <mxCell id="0" />
        <mxCell id="1" parent="0" />
        <mxCell id="7u_rVeXJhvl1PEzHxt-7-2" value="NFC Card&lt;br&gt;&lt;i style=&quot;font-size: 10px;&quot;&gt;(core)&lt;/i&gt;" style="ellipse;whiteSpace=wrap;html=1;aspect=fixed;rounded=1;labelBackgroundColor=none;" parent="1" vertex="1">
          <mxGeometry x="370" y="480" width="80" height="80" as="geometry" />
        </mxCell>
        <mxCell id="7u_rVeXJhvl1PEzHxt-7-5" value="API Web&lt;br&gt;&lt;font style=&quot;font-size: 10px;&quot;&gt;&lt;i&gt;(LandAPI)&lt;/i&gt;&lt;/font&gt;" style="ellipse;whiteSpace=wrap;html=1;aspect=fixed;rounded=1;labelBackgroundColor=none;" parent="1" vertex="1">
          <mxGeometry x="240" y="480" width="80" height="80" as="geometry" />
        </mxCell>
        <mxCell id="7u_rVeXJhvl1PEzHxt-7-8" value="PokeLander FIGHT&lt;br&gt;&lt;font style=&quot;font-size: 10px;&quot;&gt;&lt;i&gt;(Game exemple)&lt;/i&gt;&lt;/font&gt;" style="rounded=0;whiteSpace=wrap;html=1;labelBackgroundColor=none;" parent="1" vertex="1">
          <mxGeometry x="350" y="720" width="120" height="60" as="geometry" />
        </mxCell>
        <mxCell id="7u_rVeXJhvl1PEzHxt-7-9" value="Portal&lt;br&gt;&lt;font style=&quot;font-size: 10px;&quot;&gt;&lt;i&gt;(NFC reader)&lt;/i&gt;&lt;/font&gt;" style="rounded=1;whiteSpace=wrap;html=1;labelBackgroundColor=none;" parent="1" vertex="1">
          <mxGeometry x="350" y="610" width="120" height="60" as="geometry" />
        </mxCell>
        <mxCell id="7u_rVeXJhvl1PEzHxt-7-10" value="" style="endArrow=none;html=1;rounded=1;entryX=0;entryY=0.5;entryDx=0;entryDy=0;endFill=0;startArrow=classic;startFill=1;labelBackgroundColor=none;fontColor=default;" parent="1" source="7u_rVeXJhvl1PEzHxt-7-5" target="7u_rVeXJhvl1PEzHxt-7-8" edge="1">
          <mxGeometry width="50" height="50" relative="1" as="geometry">
            <mxPoint x="250" y="640" as="sourcePoint" />
            <mxPoint x="300" y="590" as="targetPoint" />
            <Array as="points">
              <mxPoint x="280" y="750" />
            </Array>
          </mxGeometry>
        </mxCell>
        <mxCell id="7u_rVeXJhvl1PEzHxt-7-13" value="Read&lt;br&gt;Only" style="edgeLabel;html=1;align=center;verticalAlign=middle;resizable=0;points=[];rounded=1;labelBackgroundColor=none;" parent="7u_rVeXJhvl1PEzHxt-7-10" vertex="1" connectable="0">
          <mxGeometry x="-0.5169" relative="1" as="geometry">
            <mxPoint x="-20" as="offset" />
          </mxGeometry>
        </mxCell>
        <mxCell id="7u_rVeXJhvl1PEzHxt-7-11" value="" style="endArrow=classic;startArrow=classic;html=1;rounded=1;labelBackgroundColor=none;fontColor=default;" parent="1" source="7u_rVeXJhvl1PEzHxt-7-9" target="7u_rVeXJhvl1PEzHxt-7-2" edge="1">
          <mxGeometry width="50" height="50" relative="1" as="geometry">
            <mxPoint x="500" y="630" as="sourcePoint" />
            <mxPoint x="550" y="580" as="targetPoint" />
          </mxGeometry>
        </mxCell>
        <mxCell id="7u_rVeXJhvl1PEzHxt-7-17" value="Read / Write" style="edgeLabel;html=1;align=center;verticalAlign=middle;resizable=0;points=[];rounded=1;labelBackgroundColor=none;" parent="7u_rVeXJhvl1PEzHxt-7-11" vertex="1" connectable="0">
          <mxGeometry x="0.024" relative="1" as="geometry">
            <mxPoint x="-36" as="offset" />
          </mxGeometry>
        </mxCell>
        <mxCell id="7u_rVeXJhvl1PEzHxt-7-12" value="" style="endArrow=classic;startArrow=classic;html=1;rounded=1;labelBackgroundColor=none;fontColor=default;" parent="1" source="7u_rVeXJhvl1PEzHxt-7-8" target="7u_rVeXJhvl1PEzHxt-7-9" edge="1">
          <mxGeometry width="50" height="50" relative="1" as="geometry">
            <mxPoint x="560" y="740" as="sourcePoint" />
            <mxPoint x="610" y="690" as="targetPoint" />
          </mxGeometry>
        </mxCell>
        <mxCell id="7u_rVeXJhvl1PEzHxt-7-16" value="Read / Write" style="edgeLabel;html=1;align=center;verticalAlign=middle;resizable=0;points=[];rounded=1;labelBackgroundColor=none;" parent="7u_rVeXJhvl1PEzHxt-7-12" vertex="1" connectable="0">
          <mxGeometry x="0.024" relative="1" as="geometry">
            <mxPoint x="-36" as="offset" />
          </mxGeometry>
        </mxCell>
        <mxCell id="7u_rVeXJhvl1PEzHxt-7-18" value="&lt;h1&gt;Global and local data&lt;/h1&gt;&lt;p&gt;The API and NFC card together reduce server storage space to a minimum&lt;/p&gt;" style="text;html=1;strokeColor=none;fillColor=none;spacing=5;spacingTop=-20;whiteSpace=wrap;overflow=hidden;rounded=1;verticalAlign=top;labelBackgroundColor=none;" parent="1" vertex="1">
          <mxGeometry x="520" y="455" width="190" height="130" as="geometry" />
        </mxCell>
        <mxCell id="7u_rVeXJhvl1PEzHxt-7-20" value="- Landers&lt;br&gt;- Types&lt;br&gt;- Moves&lt;br&gt;- Ailments&lt;br&gt;- Evolution Chain&lt;br&gt;- Stats&lt;br&gt;- Nature" style="shape=note;whiteSpace=wrap;html=1;backgroundOutline=1;darkOpacity=0.05;size=18;align=left;rounded=1;labelBackgroundColor=none;" parent="1" vertex="1">
          <mxGeometry x="230" y="320" width="100" height="110" as="geometry" />
        </mxCell>
        <mxCell id="7u_rVeXJhvl1PEzHxt-7-21" value="" style="endArrow=none;dashed=1;html=1;rounded=1;labelBackgroundColor=none;fontColor=default;" parent="1" source="7u_rVeXJhvl1PEzHxt-7-5" target="7u_rVeXJhvl1PEzHxt-7-20" edge="1">
          <mxGeometry width="50" height="50" relative="1" as="geometry">
            <mxPoint x="170" y="510" as="sourcePoint" />
            <mxPoint x="220" y="460" as="targetPoint" />
          </mxGeometry>
        </mxCell>
        <mxCell id="7u_rVeXJhvl1PEzHxt-7-22" value="&lt;font style=&quot;font-size: 10px;&quot;&gt;- Tag&lt;br&gt;- Custom Name&lt;br&gt;- Happiness&lt;br&gt;- Meta&lt;br&gt;&lt;span style=&quot;white-space: pre;&quot;&gt;&#x9;&lt;/span&gt;- IsMale&lt;br&gt;&lt;span style=&quot;white-space: pre;&quot;&gt;&#x9;&lt;/span&gt;- IsShiny&lt;br&gt;&lt;span style=&quot;white-space: pre;&quot;&gt;&#x9;&lt;/span&gt;- Nature&lt;br&gt;- ID&lt;br&gt;- PV&lt;br&gt;- XP&lt;br&gt;- Height&lt;br&gt;- Weight&lt;br&gt;- attacks&lt;br&gt;&lt;span style=&quot;white-space: pre;&quot;&gt;&#x9;&lt;/span&gt;- ID 1&lt;br&gt;&lt;span style=&quot;white-space: pre;&quot;&gt;&#x9;&lt;/span&gt;- ID 2&lt;br&gt;&lt;span style=&quot;white-space: pre;&quot;&gt;&#x9;&lt;/span&gt;- ID 3&lt;br&gt;&lt;span style=&quot;white-space: pre;&quot;&gt;&#x9;&lt;/span&gt;- ID 4&lt;br&gt;- IVs&lt;br&gt;- EVs&lt;br&gt;&lt;/font&gt;" style="shape=note;whiteSpace=wrap;html=1;backgroundOutline=1;darkOpacity=0.05;size=18;align=left;verticalAlign=middle;rounded=1;labelBackgroundColor=none;" parent="1" vertex="1">
          <mxGeometry x="370" y="140" width="80" height="290" as="geometry" />
        </mxCell>
        <mxCell id="7u_rVeXJhvl1PEzHxt-7-23" value="" style="endArrow=none;dashed=1;html=1;rounded=1;labelBackgroundColor=none;fontColor=default;" parent="1" source="7u_rVeXJhvl1PEzHxt-7-2" target="7u_rVeXJhvl1PEzHxt-7-22" edge="1">
          <mxGeometry width="50" height="50" relative="1" as="geometry">
            <mxPoint x="320" y="490" as="sourcePoint" />
            <mxPoint x="370" y="440" as="targetPoint" />
          </mxGeometry>
        </mxCell>
      </root>
    </mxGraphModel>
  </diagram>
</mxfile>
